<?xml version="1.0" encoding="UTF-8"?>
<svg version="1.1" xmlns="http://www.w3.org/2000/svg" width="500" height="500">
<path d="M0 0 C165 0 330 0 500 0 C500 165 500 330 500 500 C335 500 170 500 0 500 C0 335 0 170 0 0 Z " fill="#FEFEFE" transform="translate(0,0)"/>
<path d="M0 0 C14.19 -0.04125 28.38 -0.0825 43 -0.125 C47.46917969 -0.14320801 51.93835938 -0.16141602 56.54296875 -0.18017578 C62.02929687 -0.18920898 62.02929687 -0.18920898 64.60327148 -0.19088745 C66.38876341 -0.1939448 68.17425139 -0.20095015 69.9597168 -0.21115112 C72.67503966 -0.22587997 75.39011167 -0.227809 78.10546875 -0.22705078 C79.28486275 -0.23784511 79.28486275 -0.23784511 80.48808289 -0.2488575 C93.41031339 -0.20084699 105.57735191 4.63210433 114.87109375 13.59765625 C122.34877545 22.03577413 124.48638653 31.08660864 124.3125 42.171875 C123.5977334 50.92776586 120.19385623 58.72319034 114 65 C104.80774101 72.57643221 93.77323622 76.37605065 82.3125 78.9375 C59.6341272 83.75156261 59.6341272 83.75156261 42.23828125 97.71484375 C41.82964844 98.46894531 41.42101563 99.22304688 41 100 C40.01 99.505 40.01 99.505 39 99 C45.66095669 85.40054675 59.42205876 80.17580167 72.37890625 73.859375 C85.06340937 67.67138455 93.40079999 63.11203813 98.3125 49.3125 C100.60100277 38.13660783 99.65932179 26.4277252 93.52734375 16.65234375 C86.73301253 8.05904067 78.48829207 6.09765841 68 4 C46.22 3.505 46.22 3.505 24 3 C24 35.01 24 67.02 24 100 C18.06 100 12.12 100 6 100 C6 110.89 6 121.78 6 133 C11.94 133 17.88 133 24 133 C24.66 139.93 25.32 146.86 26 154 C17.42 154 8.84 154 0 154 C0 103.18 0 52.36 0 0 Z " fill="#050505" transform="translate(22,184)"/>
<path d="M0 0 C14.025 -0.103125 28.05 -0.20625 42.5 -0.3125 C46.89634766 -0.35802002 51.29269531 -0.40354004 55.82226562 -0.45043945 C61.27246094 -0.47302246 61.27246094 -0.47302246 63.83972168 -0.47721863 C65.59824996 -0.48479849 67.35675553 -0.50217518 69.1151123 -0.52787781 C85.60169455 -0.75640851 101.39218887 0.98622629 113.953125 12.84375 C120.91196359 20.21193204 123.72272065 27.79713371 123.5 37.875 C123.48864014 38.74979004 123.47728027 39.62458008 123.46557617 40.52587891 C123.21262618 48.96328827 121.66762284 57.21423846 115.66796875 63.6015625 C104.91161576 72.61976946 92.86211035 76.5500673 79.4375 79.75 C78.12936809 80.0682337 76.8214236 80.38723883 75.51367188 80.70703125 C72.34420061 81.478932 69.17306507 82.24303426 66 83 C67.64548828 83.03867187 67.64548828 83.03867187 69.32421875 83.078125 C70.77868448 83.1344269 72.23311003 83.19177377 73.6875 83.25 C74.7693457 83.27126953 74.7693457 83.27126953 75.87304688 83.29296875 C80.78004694 83.51703268 83.51148868 84.2623093 87 88 C88.80078125 91.015625 88.80078125 91.015625 90.3125 94.25 C90.82425781 95.32765625 91.33601563 96.4053125 91.86328125 97.515625 C92.23839844 98.33546875 92.61351562 99.1553125 93 100 C88.79285562 100.26221814 84.58781109 100.42147604 80.375 100.5625 C78.59029297 100.67561523 78.59029297 100.67561523 76.76953125 100.79101562 C73.29856149 100.87827464 70.37046936 100.84910552 67 100 C64.79113653 97.85741304 63.56719124 95.90689431 62.23291016 93.14428711 C60.76809685 90.59667221 59.75668971 89.93506134 57 89 C52.30454713 89.25154212 49.56721525 89.96126109 46 93 C45.34 93 44.68 93 44 93 C43.731875 93.598125 43.46375 94.19625 43.1875 94.8125 C42.01506533 96.97224808 40.80630718 98.35790256 39 100 C41.23592904 92.05003007 47.26425143 87.15833793 54.125 83.125 C58.41688079 80.73633036 62.81273058 78.59871467 67.26171875 76.51953125 C68.17872559 76.09075684 69.09573242 75.66198242 70.04052734 75.22021484 C71.83819888 74.38835239 73.64166751 73.56886179 75.45166016 72.76416016 C83.7896794 68.95108994 91.60956284 64.53800833 95.5 55.875 C95.9640625 54.88242188 96.428125 53.88984375 96.90625 52.8671875 C100.77701682 42.72024876 99.79940096 31.03722342 96 21 C90.87999348 11.99585061 83.83590532 7.71731236 74 5 C57.4488103 2.93110129 40.67526879 3.39703021 24 3 C24 35.01 24 67.02 24 100 C16.41 100 8.82 100 1 100 C0.67 67 0.34 34 0 0 Z " fill="#040404" transform="translate(166,184)"/>
<path d="M0 0 C46.2 0 92.4 0 140 0 C137.24061929 4.13907106 134.71220465 7.61311097 131.5 11.3125 C125.70832001 18.12279537 120.67496018 25.41835467 115.57519531 32.75146484 C112.94333965 36.50834498 110.25365267 40.222974 107.5625 43.9375 C107.02262451 44.68338379 106.48274902 45.42926758 105.92651367 46.19775391 C104.83165826 47.70999953 103.73652445 49.22204362 102.64111328 50.73388672 C99.92351825 54.48644803 97.21206969 58.24344457 94.5 62 C93.42320083 63.49090257 92.34637787 64.98178796 91.26953125 66.47265625 C89.03726028 69.5634413 86.80556322 72.65463977 84.57421875 75.74609375 C84.00703125 76.53177734 83.43984375 77.31746094 82.85546875 78.12695312 C81.79150964 79.60079812 80.7276927 81.07474575 79.6640625 82.54882812 C78.65922304 83.94064884 77.64187456 85.32351621 76.61279297 86.69750977 C74.90488326 89.0538134 74.90488326 89.0538134 73.34423828 91.95678711 C68.79907304 99.51767009 68.79907304 99.51767009 63.73901367 100.87426758 C59.93489855 101.08293212 56.29916725 100.96355738 52.5 100.6875 C51.200625 100.63787109 49.90125 100.58824219 48.5625 100.53710938 C45.36919427 100.40796833 42.1875386 100.22772683 39 100 C41.80218184 94.85826068 44.92878015 90.2575392 48.5 85.625 C52.73806461 80.0538383 56.86483047 74.42484834 60.875 68.6875 C65.20663292 62.49771533 69.63021693 56.38485785 74.125 50.3125 C78.54353772 44.34289451 82.92482488 38.3523424 87.22729492 32.29858398 C90.77472951 27.30765514 94.35247822 22.33899094 97.9375 17.375 C98.49381104 16.60406006 99.05012207 15.83312012 99.62329102 15.03881836 C100.14850342 14.31186768 100.67371582 13.58491699 101.21484375 12.8359375 C101.68011475 12.19188965 102.14538574 11.5478418 102.62475586 10.88427734 C104.06596617 8.9096171 105.53164207 6.95452541 107 5 C96.56763209 4.93008129 86.13532114 4.87697814 75.70276546 4.84456348 C70.85701581 4.8289957 66.01142802 4.80792257 61.16577148 4.77368164 C56.47785951 4.7407677 51.79010193 4.72308042 47.10208321 4.71536827 C45.32536964 4.70988163 43.54866324 4.69917012 41.77201653 4.68280983 C30.73169298 4.585311 20.75217173 5.42298204 10 8 C8.02255367 8.40433989 6.04354611 8.80118271 4.0625 9.1875 C2.721875 9.455625 1.38125 9.72375 0 10 C0 6.7 0 3.4 0 0 Z " fill="#020202" transform="translate(314,184)"/>
<path d="M0 0 C-1.75066796 3.88609811 -4.18324006 7.27812258 -6.625 10.75 C-7.04523438 11.35199219 -7.46546875 11.95398438 -7.8984375 12.57421875 C-8.92993137 14.05113043 -9.96464579 15.52579194 -11 17 C-0.67100259 16.96160204 9.65764194 16.90175702 19.9863615 16.81609726 C24.78478352 16.77694267 29.5830308 16.74460008 34.3815918 16.72900391 C61.64851222 16.95472698 61.64851222 16.95472698 88.50317383 12.84863281 C92 12 92 12 96 12 C96 14.97 96 17.94 96 21 C49.8 21 3.6 21 -44 21 C-42.02 18.36 -40.04 15.72 -38 13 C-37.40960938 11.80375 -36.81921875 10.6075 -36.2109375 9.375 C-28.63455332 -4.55265092 -14.01262093 -1.19869049 0 0 Z " fill="#010101" transform="translate(356,317)"/>
<path d="M0 0 C22.01272913 -2.8629272 22.01272913 -2.8629272 28.39306641 1.71826172 C33.38663948 7.25388808 36.65602644 13.96807931 39 21 C35.10430865 21.08732726 31.20887018 21.14050185 27.3125 21.1875 C26.20970703 21.21263672 25.10691406 21.23777344 23.97070312 21.26367188 C22.90400391 21.27333984 21.83730469 21.28300781 20.73828125 21.29296875 C19.75899658 21.3086792 18.77971191 21.32438965 17.77075195 21.34057617 C13.68283712 20.83809655 11.06600326 19.35278178 8.5144043 16.11474609 C8.12164307 15.42461426 7.72888184 14.73448242 7.32421875 14.0234375 C6.88916016 13.270625 6.45410156 12.5178125 6.00585938 11.7421875 C5.57080078 10.96101563 5.13574219 10.17984375 4.6875 9.375 C4.23310547 8.58609375 3.77871094 7.7971875 3.31054688 6.984375 C0 1.1896734 0 1.1896734 0 0 Z " fill="#030303" transform="translate(252,317)"/>
<path d="M0 0 C7.59 0 15.18 0 23 0 C23.66 6.93 24.32 13.86 25 21 C16.09 21 7.18 21 -2 21 C-1.01 10.605 -1.01 10.605 0 0 Z " fill="#010101" transform="translate(167,317)"/>
<path d="M0 0 C10.22459016 -0.48688525 10.22459016 -0.48688525 13.6875 1.6875 C15.25613705 4.45128908 15.56114721 5.8736084 15 9 C13.5 10.8125 13.5 10.8125 12 12 C13.39759905 15.54518884 13.39759905 15.54518884 15 19 C14.01 19 13.02 19 12 19 C11.38125 17.7934375 11.38125 17.7934375 10.75 16.5625 C9.15014447 13.5915869 9.15014447 13.5915869 5.3125 13.1875 C4.219375 13.125625 3.12625 13.06375 2 13 C2 14.98 2 16.96 2 19 C1.34 19 0.68 19 0 19 C0 12.73 0 6.46 0 0 Z " fill="#2F2F2F" transform="translate(337,290)"/>
<path d="M0 0 C1.65 0 3.3 0 5 0 C7.64 5.94 10.28 11.88 13 18 C11.68 18.33 10.36 18.66 9 19 C8.67 17.68 8.34 16.36 8 15 C4.37 15 0.74 15 -3 15 C-3.33 16.32 -3.66 17.64 -4 19 C-5.32 18.67 -6.64 18.34 -8 18 C-5.36 12.06 -2.72 6.12 0 0 Z " fill="#161616" transform="translate(259,290)"/>
<path d="M0 0 C5.58879398 1.1177588 6.08027185 1.73460129 9.3125 6.0625 C10.00988281 6.98160156 10.70726562 7.90070313 11.42578125 8.84765625 C11.94527344 9.55792969 12.46476562 10.26820313 13 11 C13.33 7.37 13.66 3.74 14 0 C14.99 0 15.98 0 17 0 C17 6.27 17 12.54 17 19 C12.2941188 17.8235297 11.60492246 16.69648124 8.75 12.9375 C8.04359375 12.01839844 7.3371875 11.09929687 6.609375 10.15234375 C6.07828125 9.44207031 5.5471875 8.73179687 5 8 C4.67 11.63 4.34 15.26 4 19 C2.68 19 1.36 19 0 19 C0 12.73 0 6.46 0 0 Z " fill="#121212" transform="translate(274,290)"/>
<path d="M0 0 C10.22459016 -0.48688525 10.22459016 -0.48688525 13.6875 1.6875 C15.29181863 4.51415664 15.71750953 5.81106874 15 9 C12.8342985 11.50409236 11.23669679 12.8559854 7.88671875 13.24609375 C5.92276836 13.24958212 3.95945545 13.13284444 2 13 C2 14.98 2 16.96 2 19 C1.34 19 0.68 19 0 19 C0 12.73 0 6.46 0 0 Z " fill="#282828" transform="translate(299,290)"/>
<path d="M0 0 C0.99 0 1.98 0 3 0 C3.06058594 0.91523438 3.12117187 1.83046875 3.18359375 2.7734375 C3.26738281 3.96195312 3.35117188 5.15046875 3.4375 6.375 C3.51871094 7.55835938 3.59992188 8.74171875 3.68359375 9.9609375 C3.81084936 12.91518901 3.81084936 12.91518901 5 15 C6.98 15 8.96 15 11 15 C12.41634833 12.16730334 12.3463005 9.52533562 12.5625 6.375 C12.64628906 5.18648438 12.73007813 3.99796875 12.81640625 2.7734375 C12.87699219 1.85820312 12.93757812 0.94296875 13 0 C14.32 0 15.64 0 17 0 C17.08150744 2.06183633 17.1394194 4.12461349 17.1875 6.1875 C17.23970703 7.91033203 17.23970703 7.91033203 17.29296875 9.66796875 C16.97323533 13.3044035 16.18158273 15.1105914 14 18 C10.87057535 19.56471233 7.38917777 19.69701958 4 19 C1.7578125 17.46484375 1.7578125 17.46484375 0 15 C-0.2911521 12.26317029 -0.38322418 9.96059961 -0.25 7.25 C-0.23195312 6.55261719 -0.21390625 5.85523438 -0.1953125 5.13671875 C-0.14838554 3.42388461 -0.07664605 1.71176176 0 0 Z " fill="#080808" transform="translate(207,290)"/>
<path d="M0 0 C3.63 0 7.26 0 11 0 C11.08117951 2.41734542 11.14056926 4.83194949 11.1875 7.25 C11.22520508 8.27287109 11.22520508 8.27287109 11.26367188 9.31640625 C11.30926786 12.44733074 11.17374088 14.66778638 9.7109375 17.46484375 C8 19 8 19 4.4375 19.3125 C1 19 1 19 -1 18 C-0.67 16.68 -0.34 15.36 0 14 C2.97 14.495 2.97 14.495 6 15 C6.33 11.04 6.66 7.08 7 3 C4.69 3 2.38 3 0 3 C0 2.01 0 1.02 0 0 Z " fill="#1A1A1A" transform="translate(191,290)"/>
<path d="M0 0 C4.62 0 9.24 0 14 0 C14 0.66 14 1.32 14 2 C10.37 2 6.74 2 3 2 C3 3.98 3 5.96 3 8 C5.97 8 8.94 8 12 8 C12 8.66 12 9.32 12 10 C8.7 10 5.4 10 2 10 C2 12.31 2 14.62 2 17 C5.96 17 9.92 17 14 17 C14 17.66 14 18.32 14 19 C9.38 19 4.76 19 0 19 C0 12.73 0 6.46 0 0 Z " fill="#363636" transform="translate(318,290)"/>
<path d="M0 0 C4.29 0 8.58 0 13 0 C13 0.66 13 1.32 13 2 C9.37 2 5.74 2 2 2 C2 3.98 2 5.96 2 8 C5.3 8 8.6 8 12 8 C12 8.66 12 9.32 12 10 C8.7 10 5.4 10 2 10 C2 12.31 2 14.62 2 17 C5.63 17 9.26 17 13 17 C13 17.66 13 18.32 13 19 C8.71 19 4.42 19 0 19 C0 12.73 0 6.46 0 0 Z " fill="#272727" transform="translate(357,290)"/>
<path d="M0 0 C4.95 0 9.9 0 15 0 C13.157283 4.60679249 11.51040484 7.09480569 8.375 10.8125 C7.14910156 12.27623047 7.14910156 12.27623047 5.8984375 13.76953125 C5.27195312 14.50558594 4.64546875 15.24164063 4 16 C7.96 16.33 11.92 16.66 16 17 C16 17.66 16 18.32 16 19 C10.72 19 5.44 19 0 19 C1.842717 14.39320751 3.48959516 11.90519431 6.625 8.1875 C7.44226563 7.21167969 8.25953125 6.23585938 9.1015625 5.23046875 C9.72804688 4.49441406 10.35453125 3.75835937 11 3 C7.37 2.67 3.74 2.34 0 2 C0 1.34 0 0.68 0 0 Z " fill="#2D2D2D" transform="translate(373,290)"/>
<path d="M0 0 C6.8359375 -0.1953125 6.8359375 -0.1953125 9 0 C9.66 0.66 10.32 1.32 11 2 C10.75 5.0625 10.75 5.0625 10 8 C6.78548731 9.60725635 3.56387464 9.05748185 0 9 C0 6.03 0 3.06 0 0 Z " fill="#F6F6F6" transform="translate(301,292)"/>
<path d="M0 0 C6.93359375 -0.09765625 6.93359375 -0.09765625 9 0 C10 1 10 1 10.0625 4.5625 C10.041875 5.696875 10.02125 6.83125 10 8 C6.78548731 9.60725635 3.56387464 9.05748185 0 9 C0 6.03 0 3.06 0 0 Z " fill="#FBFBFB" transform="translate(339,292)"/>
<path d="M0 0 C0.99 0 1.98 0 3 0 C3 5.28 3 10.56 3 16 C6.3 16 9.6 16 13 16 C13 16.99 13 17.98 13 19 C8.71 19 4.42 19 0 19 C0 12.73 0 6.46 0 0 Z " fill="#000000" transform="translate(229,290)"/>
<path d="M0 0 C1.32 0 2.64 0 4 0 C4.08150744 2.06183633 4.1394194 4.12461349 4.1875 6.1875 C4.22230469 7.33605469 4.25710937 8.48460937 4.29296875 9.66796875 C3.97622579 13.27039199 3.08533398 15.09366839 1 18 C-0.32 17.67 -1.64 17.34 -3 17 C-2.68289062 16.47921875 -2.36578125 15.9584375 -2.0390625 15.421875 C-0.71079489 12.32591291 -0.57635753 9.60595879 -0.375 6.25 C-0.30023438 5.07953125 -0.22546875 3.9090625 -0.1484375 2.703125 C-0.09945312 1.81109375 -0.05046875 0.9190625 0 0 Z " fill="#1B1B1B" transform="translate(220,290)"/>
<path d="M0 0 C0.99 0 1.98 0 3 0 C3 6.27 3 12.54 3 19 C2.01 19 1.02 19 0 19 C0 12.73 0 6.46 0 0 Z " fill="#000000" transform="translate(245,290)"/>
<path d="M0 0 C4.29 0 8.58 0 13 0 C13 0.66 13 1.32 13 2 C9.37 2 5.74 2 2 2 C2 4.31 2 6.62 2 9 C1.34 9 0.68 9 0 9 C0 6.03 0 3.06 0 0 Z " fill="#333333" transform="translate(357,290)"/>
<path d="M0 0 C0.66 0.33 1.32 0.66 2 1 C4.0374763 1.22858114 6.08040303 1.41024278 8.125 1.5625 C9.76855469 1.68818359 9.76855469 1.68818359 11.4453125 1.81640625 C12.28835938 1.87699219 13.13140625 1.93757813 14 2 C14 2.66 14 3.32 14 4 C8.72 4 3.44 4 -2 4 C-1.34 2.68 -0.68 1.36 0 0 Z " fill="#1D1D1D" transform="translate(375,305)"/>
<path d="M0 0 C0.66 0.33 1.32 0.66 2 1 C2.73075648 3.3140622 3.40138258 5.64828869 4 8 C1.69 8 -0.62 8 -3 8 C-1.125 1.125 -1.125 1.125 0 0 Z " fill="#DBDBDB" transform="translate(261,294)"/>
<path d="M0 0 C2.97 0 5.94 0 9 0 C10.32 2.64 11.64 5.28 13 8 C12.01 8 11.02 8 10 8 C9.38125 6.7934375 9.38125 6.7934375 8.75 5.5625 C7.15014447 2.5915869 7.15014447 2.5915869 3.3125 2.1875 C1.6728125 2.0946875 1.6728125 2.0946875 0 2 C0 1.34 0 0.68 0 0 Z " fill="#242424" transform="translate(339,301)"/>
<path d="M0 0 C0.66 0.33 1.32 0.66 2 1 C0.49359964 4.83447364 -1.83675586 6.46940469 -5 9 C-6.31165257 11.11660427 -6.31165257 11.11660427 -7 13 C-7.66 12.67 -8.32 12.34 -9 12 C-6.45335415 7.18966896 -4.00972202 3.67557852 0 0 Z " fill="#262626" transform="translate(70,271)"/>
<path d="M0 0 C1.65 0 3.3 0 5 0 C5 2.31 5 4.62 5 7 C3.68 6.34 2.36 5.68 1 5 C0.67 5.66 0.34 6.32 0 7 C0 4.69 0 2.38 0 0 Z " fill="#939393" transform="translate(413,318)"/>
<path d="M0 0 C0.66 0 1.32 0 2 0 C2.66 2.31 3.32 4.62 4 7 C1.69 7 -0.62 7 -3 7 C-2.01 4.69 -1.02 2.38 0 0 Z " fill="#909090" transform="translate(382,318)"/>
<path d="M0 0 C1.65 0 3.3 0 5 0 C4.67 1.65 4.34 3.3 4 5 C3.01 5 2.02 5 1 5 C0.67 5.66 0.34 6.32 0 7 C0 4.69 0 2.38 0 0 Z " fill="#959595" transform="translate(370,318)"/>
<path d="M0 0 C1.485 0.99 1.485 0.99 3 2 C3 2.66 3 3.32 3 4 C3.66 4 4.32 4 5 4 C5 4.66 5 5.32 5 6 C3.35 6.33 1.7 6.66 0 7 C0 4.69 0 2.38 0 0 Z " fill="#8B8B8B" transform="translate(423,318)"/>
<path d="M0 0 C0.66 0 1.32 0 2 0 C1.67 0.99 1.34 1.98 1 3 C0.34 3 -0.32 3 -1 3 C-1.268125 3.598125 -1.53625 4.19625 -1.8125 4.8125 C-2.98493467 6.97224808 -4.19369282 8.35790256 -6 10 C-4.63312778 6.01328937 -2.84804907 3.11505367 0 0 Z " fill="#373737" transform="translate(211,274)"/>
</svg>
